{
  "accessors": [
    {
      "bufferView": 2,
      "componentType": 5126,
      "count": 3239,
      "max": [
        24.668243408203125,
        19.167629241943359,
        1.7973546981811523
      ],
      "min": [
        -16.299884796142578,
        -4.7932462692260742,
        -50.904628753662109
      ],
      "type": "VEC3"
    },
    {
      "bufferView": 2,
      "byteOffset": 38868,
      "componentType": 5126,
      "count": 3239,
      "max": [
        0.99893677234649658,
        0.99550467729568481,
        0.99893611669540405
      ],
      "min": [
        -0.99858283996582031,
        -0.99889582395553589,
        -0.99893641471862793
      ],
      "type": "VEC3"
    },
    {
      "bufferView": 3,
      "componentType": 5126,
      "count": 3239,
      "max": [
        0.99958878755569458,
        0.99959760904312134,
        0.99977946281433105,
        1
      ],
      "min": [
        -0.9997444748878479,
        -0.99881815910339355,
        -0.99990719556808472,
        1
      ],
      "type": "VEC4"
    },
    {
      "bufferView": 0,
      "componentType": 5125,
      "count": 6984,
      "max": [
        3238
      ],
      "min": [
        0
      ],
      "type": "SCALAR"
    },
    {
      "bufferView": 2,
      "byteOffset": 77736,
      "componentType": 5126,
      "count": 858,
      "max": [
        24.668243408203125,
        19.528596878051758,
        1.7113368511199951
      ],
      "min": [
        -16.299884796142578,
        -4.6912307739257812,
        -50.904628753662109
      ],
      "type": "VEC3"
    },
    {
      "bufferView": 2,
      "byteOffset": 88032,
      "componentType": 5126,
      "count": 858,
      "max": [
        0.92502570152282715,
        0.99151670932769775,
        0.98154264688491821
      ],
      "min": [
        -0.94614136219024658,
        -0.99920135736465454,
        -0.98247271776199341
      ],
      "type": "VEC3"
    },
    {
      "bufferView": 3,
      "byteOffset": 51824,
      "componentType": 5126,
      "count": 858,
      "max": [
        0.93686240911483765,
        0.94229984283447266,
        0.99732422828674316,
        1
      ],
      "min": [
        -0.96647930145263672,
        -0.96552211046218872,
        -0.98149687051773071,
        1
      ],
      "type": "VEC4"
    },
    {
      "bufferView": 0,
      "byteOffset": 27936,
      "componentType": 5125,
      "count": 2448,
      "max": [
        857
      ],
      "min": [
        0
      ],
      "type": "SCALAR"
    },
    {
      "bufferView": 2,
      "byteOffset": 98328,
      "componentType": 5126,
      "count": 770,
      "max": [
        24.465402603149414,
        19.484622955322266,
        0.89459383487701416
      ],
      "min": [
        -16.131006240844727,
        -4.2467465400695801,
        -50.447807312011719
      ],
      "type": "VEC3"
    },
    {
      "bufferView": 2,
      "byteOffset": 107568,
      "componentType": 5126,
      "count": 770,
      "max": [
        0.97759288549423218,
        0.99587249755859375,
        0.98153829574584961
      ],
      "min": [
        -0.990897536277771,
        -0.9842413067817688,
        -0.98153835535049438
      ],
      "type": "VEC3"
    },
    {
      "bufferView": 3,
      "byteOffset": 65552,
      "componentType": 5126,
      "count": 770,
      "max": [
        0.91218107938766479,
        0.94965541362762451,
        0.98585647344589233,
        1
      ],
      "min": [
        -0.93336886167526245,
        -0.95435267686843872,
        -0.97955518960952759,
        1
      ],
      "type": "VEC4"
    },
    {
      "bufferView": 0,
      "byteOffset": 37728,
      "componentType": 5125,
      "count": 1320,
      "max": [
        769
      ],
      "min": [
        0
      ],
      "type": "SCALAR"
    },
    {
      "bufferView": 2,
      "byteOffset": 116808,
      "componentType": 5126,
      "count": 4073,
      "max": [
        57.133159637451172,
        49.0306396484375,
        -45.843856811523438
      ],
      "min": [
        -49.761379241943359,
        -45.516860961914062,
        -64.68353271484375
      ],
      "type": "VEC3"
    },
    {
      "bufferView": 2,
      "byteOffset": 165684,
      "componentType": 5126,
      "count": 4073,
      "max": [
        0.98747068643569946,
        0.99365746974945068,
        1
      ],
      "min": [
        -0.99450534582138062,
        -0.99997043609619141,
        -1
      ],
      "type": "VEC3"
    },
    {
      "bufferView": 3,
      "byteOffset": 77872,
      "componentType": 5126,
      "count": 4073,
      "max": [
        0.99999696016311646,
        0.99389934539794922,
        0.99904602766036987,
        1
      ],
      "min": [
        -0.9940447211265564,
        -0.95237082242965698,
        -0.99601262807846069,
        -1
      ],
      "type": "VEC4"
    },
    {
      "bufferView": 1,
      "componentType": 5126,
      "count": 4073,
      "max": [
        0.99479019641876221,
        0.90680992603302002
      ],
      "min": [
        0,
        0
      ],
      "type": "VEC2"
    },
    {
      "bufferView": 0,
      "byteOffset": 43008,
      "componentType": 5125,
      "count": 19380,
      "max": [
        4072
      ],
      "min": [
        0
      ],
      "type": "SCALAR"
    },
    {
      "bufferView": 2,
      "byteOffset": 214560,
      "componentType": 5126,
      "count": 65532,
      "max": [
        29.150386810302734,
        22.873027801513672,
        10.386993408203125
      ],
      "min": [
        -21.425319671630859,
        -5.0201840400695801,
        -54.458877563476562
      ],
      "type": "VEC3"
    },
    {
      "bufferView": 2,
      "byteOffset": 1000944,
      "componentType": 5126,
      "count": 65532,
      "max": [
        0.99999183416366577,
        0.99989116191864014,
        0.99966031312942505
      ],
      "min": [
        -0.9999421238899231,
        -0.99984055757522583,
        -0.99998587369918823
      ],
      "type": "VEC3"
    },
    {
      "bufferView": 3,
      "byteOffset": 143040,
      "componentType": 5126,
      "count": 65532,
      "max": [
        0.99993640184402466,
        0.99999576807022095,
        0.99993211030960083,
        1
      ],
      "min": [
        -0.9995989203453064,
        -0.99988734722137451,
        -0.99999457597732544,
        -1
      ],
      "type": "VEC4"
    },
    {
      "bufferView": 1,
      "byteOffset": 32584,
      "componentType": 5126,
      "count": 65532,
      "max": [
        0.9999845027923584,
        0.99999022483825684
      ],
      "min": [
        0,
        0
      ],
      "type": "VEC2"
    },
    {
      "bufferView": 0,
      "byteOffset": 120528,
      "componentType": 5125,
      "count": 199143,
      "max": [
        65531
      ],
      "min": [
        0
      ],
      "type": "SCALAR"
    },
    {
      "bufferView": 2,
      "byteOffset": 1787328,
      "componentType": 5126,
      "count": 65532,
      "max": [
        30.023769378662109,
        24.756780624389648,
        8.4023942947387695
      ],
      "min": [
        -21.072975158691406,
        -6.7627792358398438,
        -60.649005889892578
      ],
      "type": "VEC3"
    },
    {
      "bufferView": 2,
      "byteOffset": 2573712,
      "componentType": 5126,
      "count": 65532,
      "max": [
        0.99997574090957642,
        0.99970966577529907,
        0.99999338388442993
      ],
      "min": [
        -0.99981725215911865,
        -0.99998372793197632,
        -0.99989843368530273
      ],
      "type": "VEC3"
    },
    {
      "bufferView": 3,
      "byteOffset": 1191552,
      "componentType": 5126,
      "count": 65532,
      "max": [
        0.99981558322906494,
        0.99929773807525635,
        0.99978291988372803,
        1
      ],
      "min": [
        -0.99989116191864014,
        -0.99948930740356445,
        -0.99996083974838257,
        -1
      ],
      "type": "VEC4"
    },
    {
      "bufferView": 1,
      "byteOffset": 556840,
      "componentType": 5126,
      "count": 65532,
      "max": [
        1,
        0.99916130304336548
      ],
      "min": [
        0,
        0
      ],
      "type": "VEC2"
    },
    {
      "bufferView": 0,
      "byteOffset": 917100,
      "componentType": 5125,
      "count": 189597,
      "max": [
        65531
      ],
      "min": [
        0
      ],
      "type": "SCALAR"
    },
    {
      "bufferView": 2,
      "byteOffset": 3360096,
      "componentType": 5126,
      "count": 1238,
      "max": [
        -2.0616452693939209,
        14.96728515625,
        -13.095815658569336
      ],
      "min": [
        -15.810544967651367,
        -0.90172386169433594,
        -27.48236083984375
      ],
      "type": "VEC3"
    },
    {
      "bufferView": 2,
      "byteOffset": 3374952,
      "componentType": 5126,
      "count": 1238,
      "max": [
        0.94689333438873291,
        0.99773383140563965,
        0.98886919021606445
      ],
      "min": [
        -0.99549204111099243,
        -0.99526208639144897,
        -0.99927729368209839
      ],
      "type": "VEC3"
    },
    {
      "bufferView": 3,
      "byteOffset": 2240064,
      "componentType": 5126,
      "count": 1238,
      "max": [
        0.9901348352432251,
        0.95697444677352905,
        0.97357410192489624,
        1
      ],
      "min": [
        -0.98285895586013794,
        -0.94475245475769043,
        -0.97862100601196289,
        1
      ],
      "type": "VEC4"
    },
    {
      "bufferView": 1,
      "byteOffset": 1081096,
      "componentType": 5126,
      "count": 1238,
      "max": [
        0.99999481439590454,
        0.9998435378074646
      ],
      "min": [
        0,
        0
      ],
      "type": "VEC2"
    },
    {
      "bufferView": 0,
      "byteOffset": 1675488,
      "componentType": 5125,
      "count": 3852,
      "max": [
        1237
      ],
      "min": [
        0
      ],
      "type": "SCALAR"
    },
    {
      "bufferView": 2,
      "byteOffset": 3389808,
      "componentType": 5126,
      "count": 10181,
      "max": [
        28.369297027587891,
        23.463949203491211,
        6.8732624053955078
      ],
      "min": [
        -20.775470733642578,
        -4.6502094268798828,
        -56.960922241210938
      ],
      "type": "VEC3"
    },
    {
      "bufferView": 2,
      "byteOffset": 3511980,
      "componentType": 5126,
      "count": 10181,
      "max": [
        0.99742352962493896,
        0.99347394704818726,
        0.99975723028182983
      ],
      "min": [
        -0.99684882164001465,
        -0.99836558103561401,
        -0.9989359974861145
      ],
      "type": "VEC3"
    },
    {
      "bufferView": 3,
      "byteOffset": 2259872,
      "componentType": 5126,
      "count": 10181,
      "max": [
        0.99677544832229614,
        0.99653160572052002,
        0.99906724691390991,
        1
      ],
      "min": [
        -0.99917584657669067,
        -0.99478274583816528,
        -0.99751192331314087,
        -1
      ],
      "type": "VEC4"
    },
    {
      "bufferView": 0,
      "byteOffset": 1690896,
      "componentType": 5125,
      "count": 19704,
      "max": [
        10180
      ],
      "min": [
        0
      ],
      "type": "SCALAR"
    },
    {
      "bufferView": 2,
      "byteOffset": 3634152,
      "componentType": 5126,
      "count": 52886,
      "max": [
        28.610538482666016,
        24.420785903930664,
        6.1719303131103516
      ],
      "min": [
        -21.203723907470703,
        -6.0516653060913086,
        -56.985080718994141
      ],
      "type": "VEC3"
    },
    {
      "bufferView": 2,
      "byteOffset": 4268784,
      "componentType": 5126,
      "count": 52886,
      "max": [
        0.99988847970962524,
        0.99993526935577393,
        0.99982523918151855
      ],
      "min": [
        -0.99971765279769897,
        -0.99976706504821777,
        -0.99979382753372192
      ],
      "type": "VEC3"
    },
    {
      "bufferView": 3,
      "byteOffset": 2422768,
      "componentType": 5126,
      "count": 52886,
      "max": [
        0.99986094236373901,
        0.99991816282272339,
        0.99999880790710449,
        1
      ],
      "min": [
        -0.99997216463088989,
        -0.99991565942764282,
        -0.99956721067428589,
        -1
      ],
      "type": "VEC4"
    },
    {
      "bufferView": 0,
      "byteOffset": 1769712,
      "componentType": 5125,
      "count": 137151,
      "max": [
        52885
      ],
      "min": [
        0
      ],
      "type": "SCALAR"
    }
  ],
  "asset": {
    "generator": "Sketchfab (OSG glTF plugin)",
    "version": "2.0"
  },
  "bufferViews": [
    {
      "buffer": 0,
      "byteLength": 2318316,
      "byteOffset": 0,
      "name": "floatBufferViews",
      "target": 34963
    },
    {
      "buffer": 0,
      "byteLength": 1091000,
      "byteOffset": 2318316,
      "byteStride": 8,
      "name": "floatBufferViews",
      "target": 34962
    },
    {
      "buffer": 0,
      "byteLength": 4903416,
      "byteOffset": 3409316,
      "byteStride": 12,
      "name": "floatBufferViews",
      "target": 34962
    },
    {
      "buffer": 0,
      "byteLength": 3268944,
      "byteOffset": 8312732,
      "byteStride": 16,
      "name": "floatBufferViews",
      "target": 34962
    }
  ],
  "buffers": [
    {
      "byteLength": 11581676,
      "uri": "scene.bin"
    }
  ],
  "extensionsRequired": [
    "KHR_materials_pbrSpecularGlossiness"
  ],
  "extensionsUsed": [
    "KHR_materials_pbrSpecularGlossiness"
  ],
  "images": [
    {
      "uri": "textures//2%20-%20Default_specularGlossiness.png"
    },
    {
      "uri": "textures//2%20-%20Default_occlusion.jpg"
    },
    {
      "uri": "textures//ground_diffuse.jpg"
    },
    {
      "uri": "textures//ground_occlusion.jpg"
    }
  ],
  "materials": [
    {
      "doubleSided": true,
      "emissiveFactor": [
        0,
        0,
        0
      ],
      "extensions": {
        "KHR_materials_pbrSpecularGlossiness": {
          "diffuseFactor": [
            0.0003424751,
            0.00031671370000000001,
            0.00031671370000000001,
            1
          ],
          "glossinessFactor": 0.41000000000000003,
          "specularFactor": [
            0.14000000000000001,
            0.14000000000000001,
            0.14000000000000001
          ]
        }
      },
      "name": "plast"
    },
    {
      "alphaCutoff": 0.5,
      "alphaMode": "BLEND",
      "doubleSided": true,
      "emissiveFactor": [
        0,
        0,
        0
      ],
      "extensions": {
        "KHR_materials_pbrSpecularGlossiness": {
          "diffuseFactor": [
            0,
            0,
            0,
            0.46000000000000002
          ],
          "glossinessFactor": 0.90000000000000002,
          "specularFactor": [
            0.19,
            0.19,
            0.19
          ]
        }
      },
      "name": "glass"
    },
    {
      "doubleSided": true,
      "emissiveFactor": [
        0,
        0,
        0
      ],
      "extensions": {
        "KHR_materials_pbrSpecularGlossiness": {
          "diffuseFactor": [
            0,
            0,
            0,
            1
          ],
          "glossinessFactor": 0.80000000000000004,
          "specularFactor": [
            1,
            1,
            1
          ]
        }
      },
      "name": "cam"
    },
    {
      "doubleSided": true,
      "extensions": {
        "KHR_materials_pbrSpecularGlossiness": {
          "diffuseFactor": [
            0.22,
            0.22,
            0.22,
            1
          ],
          "diffuseTexture": {
            "index": 2,
            "texCoord": 0
          },
          "glossinessFactor": 0.45999999999999996,
          "specularFactor": [
            0,
            0,
            0
          ]
        }
      },
      "name": "ground",
      "occlusionTexture": {
        "index": 3,
        "strength": 1,
        "texCoord": 0
      }
    },
    {
      "doubleSided": true,
      "extensions": {
        "KHR_materials_pbrSpecularGlossiness": {
          "diffuseFactor": [
            0.089031676907000007,
            0.089031676907000007,
            0.089031676907000007,
            1
          ],
          "glossinessFactor": 1,
          "specularFactor": [
            1,
            1,
            1
          ],
          "specularGlossinessTexture": {
            "index": 0,
            "texCoord": 0
          }
        }
      },
      "name": "2 - Default",
      "occlusionTexture": {
        "index": 1,
        "strength": 1,
        "texCoord": 0
      }
    },
    {
      "doubleSided": true,
      "emissiveFactor": [
        0,
        0,
        0
      ],
      "extensions": {
        "KHR_materials_pbrSpecularGlossiness": {
          "diffuseFactor": [
            0,
            0,
            0,
            1
          ],
          "glossinessFactor": 0.80000000000000004,
          "specularFactor": [
            0,
            0,
            0
          ]
        }
      },
      "name": "rivets"
    },
    {
      "doubleSided": true,
      "extensions": {
        "KHR_materials_pbrSpecularGlossiness": {
          "diffuseFactor": [
            0.0042203665000000003,
            0.0039186999999999998,
            0.0039186999999999998,
            1
          ],
          "glossinessFactor": 0.28000000000000003,
          "specularFactor": [
            0.029999999999999999,
            0.029999999999999999,
            0.029999999999999999
          ]
        }
      },
      "name": "3 - Default"
    }
  ],
  "meshes": [
    {
      "primitives": [
        {
          "attributes": {
            "NORMAL": 1,
            "POSITION": 0,
            "TANGENT": 2
          },
          "indices": 3,
          "material": 0,
          "mode": 4
        }
      ]
    },
    {
      "primitives": [
        {
          "attributes": {
            "NORMAL": 5,
            "POSITION": 4,
            "TANGENT": 6
          },
          "indices": 7,
          "material": 1,
          "mode": 4
        }
      ]
    },
    {
      "primitives": [
        {
          "attributes": {
            "NORMAL": 9,
            "POSITION": 8,
            "TANGENT": 10
          },
          "indices": 11,
          "material": 2,
          "mode": 4
        }
      ]
    },
    {
      "primitives": [
        {
          "attributes": {
            "NORMAL": 13,
            "POSITION": 12,
            "TANGENT": 14,
            "TEXCOORD_0": 15
          },
          "indices": 16,
          "material": 3,
          "mode": 4
        }
      ]
    },
    {
      "primitives": [
        {
          "attributes": {
            "NORMAL": 18,
            "POSITION": 17,
            "TANGENT": 19,
            "TEXCOORD_0": 20
          },
          "indices": 21,
          "material": 4,
          "mode": 4
        }
      ]
    },
    {
      "primitives": [
        {
          "attributes": {
            "NORMAL": 23,
            "POSITION": 22,
            "TANGENT": 24,
            "TEXCOORD_0": 25
          },
          "indices": 26,
          "material": 4,
          "mode": 4
        }
      ]
    },
    {
      "primitives": [
        {
          "attributes": {
            "NORMAL": 28,
            "POSITION": 27,
            "TANGENT": 29,
            "TEXCOORD_0": 30
          },
          "indices": 31,
          "material": 4,
          "mode": 4
        }
      ]
    },
    {
      "primitives": [
        {
          "attributes": {
            "NORMAL": 33,
            "POSITION": 32,
            "TANGENT": 34
          },
          "indices": 35,
          "material": 5,
          "mode": 4
        }
      ]
    },
    {
      "primitives": [
        {
          "attributes": {
            "NORMAL": 37,
            "POSITION": 36,
            "TANGENT": 38
          },
          "indices": 39,
          "material": 6,
          "mode": 4
        }
      ]
    }
  ],
  "nodes": [
    {
      "children": [
        1
      ],
      "name": "RootNode (gltf orientation matrix)",
      "rotation": [
        -0.70710678118654746,
        -0,
        -0,
        0.70710678118654757
      ]
    },
    {
      "children": [
        2
      ],
      "name": "RootNode (model correction matrix)"
    },
    {
      "children": [
        3
      ],
      "matrix": [
        1,
        0,
        0,
        0,
        0,
        0,
        1,
        0,
        0,
        -1,
        0,
        0,
        0,
        0,
        0,
        1
      ],
      "name": "93d43cf18ad5406ba0176c9fae7d4927.fbx"
    },
    {
      "children": [
        4,
        9,
        12,
        17,
        20
      ],
      "name": "RootNode"
    },
    {
      "children": [
        8
      ],
      "matrix": [
        1,
        0,
        0,
        0,
        0,
        2.2204460492503131e-16,
        -1,
        0,
        0,
        1,
        2.2204460492503131e-16,
        0,
        -2.7579441070556641,
        68.305435180664062,
        7.4392013549804688,
        1
      ],
      "name": "cent_hull"
    },
    {
      "mesh": 0,
      "name": ""
    },
    {
      "mesh": 1,
      "name": ""
    },
    {
      "mesh": 2,
      "name": ""
    },
    {
      "children": [
        5,
        6,
        7
      ],
      "name": "Geode"
    },
    {
      "children": [
        11
      ],
      "matrix": [
        1,
        0,
        0,
        0,
        0,
        2.2204460492503131e-16,
        -1,
        0,
        0,
        1,
        2.2204460492503131e-16,
        0,
        -2.7579441070556641,
        68.305435180664062,
        7.4392013549804688,
        1
      ],
      "name": "Object001"
    },
    {
      "mesh": 3,
      "name": ""
    },
    {
      "children": [
        10
      ],
      "name": "Geode"
    },
    {
      "children": [
        16
      ],
      "matrix": [
        1,
        0,
        0,
        0,
        0,
        2.2204460492503131e-16,
        -1,
        0,
        0,
        1,
        2.2204460492503131e-16,
        0,
        -2.7579441070556641,
        68.305435180664062,
        7.4392013549804688,
        1
      ],
      "name": "Object002"
    },
    {
      "mesh": 4,
      "name": ""
    },
    {
      "mesh": 5,
      "name": ""
    },
    {
      "mesh": 6,
      "name": ""
    },
    {
      "children": [
        13,
        14,
        15
      ],
      "name": "Geode"
    },
    {
      "children": [
        19
      ],
      "matrix": [
        1,
        0,
        0,
        0,
        0,
        2.2204460492503131e-16,
        -1,
        0,
        0,
        1,
        2.2204460492503131e-16,
        0,
        -2.7579441070556641,
        68.305435180664062,
        7.4392013549804688,
        1
      ],
      "name": "Object003"
    },
    {
      "mesh": 7,
      "name": ""
    },
    {
      "children": [
        18
      ],
      "name": "Geode"
    },
    {
      "children": [
        22
      ],
      "matrix": [
        1,
        0,
        0,
        0,
        0,
        2.2204460492503131e-16,
        -1,
        0,
        0,
        1,
        2.2204460492503131e-16,
        0,
        -2.7579441070556641,
        68.305435180664062,
        7.4392013549804688,
        1
      ],
      "name": "Object004"
    },
    {
      "mesh": 8,
      "name": ""
    },
    {
      "children": [
        21
      ],
      "name": "Geode"
    }
  ],
  "samplers": [
    {
      "magFilter": 9729,
      "minFilter": 9987,
      "wrapS": 10497,
      "wrapT": 10497
    }
  ],
  "scene": 0,
  "scenes": [
    {
      "name": "OSG_Scene",
      "nodes": [
        0
      ]
    }
  ],
  "textures": [
    {
      "sampler": 0,
      "source": 0
    },
    {
      "sampler": 0,
      "source": 1
    },
    {
      "sampler": 0,
      "source": 2
    },
    {
      "sampler": 0,
      "source": 3
    }
  ]
}

